solid bar_40_10_5
  facet normal -1.000000 0.000000 0.000000
    outer loop
      vertex 0.000000 0.000000 5.000000
      vertex 0.000000 10.000000 5.000000
      vertex 0.000000 10.000000 0.000000
    endloop
  endfacet
  facet normal -1.000000 0.000000 0.000000
    outer loop
      vertex 0.000000 0.000000 5.000000
      vertex 0.000000 10.000000 0.000000
      vertex 0.000000 0.000000 0.000000
    endloop
  endfacet
  facet normal 1.000000 0.000000 0.000000
    outer loop
      vertex 40.000000 10.000000 5.000000
      vertex 40.000000 0.000000 5.000000
      vertex 40.000000 10.000000 0.000000
    endloop
  endfacet
  facet normal 1.000000 0.000000 0.000000
    outer loop
      vertex 40.000000 10.000000 0.000000
      vertex 40.000000 0.000000 5.000000
      vertex 40.000000 0.000000 0.000000
    endloop
  endfacet
  facet normal 0.000000 -1.000000 0.000000
    outer loop
      vertex 40.000000 0.000000 0.000000
      vertex 0.000000 0.000000 5.000000
      vertex 0.000000 0.000000 0.000000
    endloop
  endfacet
  facet normal -0.000000 -1.000000 -0.000000
    outer loop
      vertex 40.000000 0.000000 5.000000
      vertex 0.000000 0.000000 5.000000
      vertex 40.000000 0.000000 0.000000
    endloop
  endfacet
  facet normal 0.000000 1.000000 0.000000
    outer loop
      vertex 0.000000 10.000000 5.000000
      vertex 40.000000 10.000000 0.000000
      vertex 0.000000 10.000000 0.000000
    endloop
  endfacet
  facet normal -0.000000 1.000000 0.000000
    outer loop
      vertex 0.000000 10.000000 5.000000
      vertex 40.000000 10.000000 5.000000
      vertex 40.000000 10.000000 0.000000
    endloop
  endfacet
  facet normal -0.000000 0.000000 -1.000000
    outer loop
      vertex 40.000000 10.000000 0.000000
      vertex 0.000000 0.000000 0.000000
      vertex 0.000000 10.000000 0.000000
    endloop
  endfacet
  facet normal 0.000000 -0.000000 -1.000000
    outer loop
      vertex 40.000000 10.000000 0.000000
      vertex 40.000000 0.000000 0.000000
      vertex 0.000000 0.000000 0.000000
    endloop
  endfacet
  facet normal 0.000000 0.000000 1.000000
    outer loop
      vertex 0.000000 0.000000 5.000000
      vertex 40.000000 10.000000 5.000000
      vertex 0.000000 10.000000 5.000000
    endloop
  endfacet
  facet normal 0.000000 -0.000000 1.000000
    outer loop
      vertex 40.000000 0.000000 5.000000
      vertex 40.000000 10.000000 5.000000
      vertex 0.000000 0.000000 5.000000
    endloop
  endfacet
solid bar_40_10_5
